<svg version="1.1" id="Layer_1" xmlns="http://www.w3.org/2000/svg" xmlns:xlink="http://www.w3.org/1999/xlink" x="0px" y="0px"
	 width="100%" viewBox="0 0 512 512" enable-background="new 0 0 512 512" xml:space="preserve">
<path fill="#030304" opacity="1.000000" stroke="none" 
	d="
M237.000000,513.000000 
	C158.406769,513.000000 79.813530,513.000000 1.000000,513.000000 
	C1.000000,435.645905 1.000000,358.291626 1.338321,280.393158 
	C1.451095,278.899323 1.225548,277.949677 1.000000,277.000000 
	C1.000000,185.078949 1.000000,93.157906 1.000000,1.000000 
	C78.687401,1.000000 156.375046,1.000000 234.633011,1.347740 
	C236.468887,1.463653 237.734451,1.231825 239.000000,0.999999 
	C250.020889,1.000000 261.041779,1.000000 272.742493,1.321256 
	C275.281525,1.428342 277.140778,1.214171 279.000000,1.000000 
	C356.966461,1.000000 434.932953,1.000000 512.949707,1.000000 
	C512.949707,171.559784 512.949707,342.119568 512.949707,513.000000 
	C422.646027,513.000000 332.291656,513.000000 241.297134,512.689575 
	C239.437973,512.586182 238.218994,512.793091 237.000000,513.000000 
M257.883118,509.050507 
	C271.309662,507.980988 284.905304,507.909668 298.133453,505.669006 
	C355.229858,495.997498 403.985840,470.083832 442.707489,426.978516 
	C499.864258,363.351044 521.397095,288.507965 503.100494,205.138031 
	C482.038605,109.167976 422.222015,46.090714 328.790527,15.447679 
	C305.570618,7.832164 281.487946,4.602942 256.074127,4.934166 
	C238.391327,6.823734 220.362885,7.117348 203.081467,10.860188 
	C85.144943,36.403107 2.306371,141.570251 4.937399,262.208862 
	C6.376026,328.173096 30.416075,385.170410 76.208748,432.668091 
	C112.878075,470.702820 157.461151,494.827759 209.358871,504.554840 
	C224.948364,507.476746 241.085052,507.479187 257.883118,509.050507 
M507.132141,196.354767 
	C506.524841,194.190063 505.917511,192.025375 505.310211,189.860672 
	C504.846283,189.988174 504.382355,190.115692 503.918457,190.243195 
	C505.744995,198.645477 507.571533,207.047760 509.398071,215.450043 
	C509.846527,215.368362 510.295013,215.286682 510.743500,215.205002 
	C509.671478,209.168869 508.599457,203.132736 507.132141,196.354767 
z"/>
<path fill="#8F8F94" opacity="1.000000" stroke="none" 
	d="
M278.571533,1.000000 
	C277.140778,1.214171 275.281525,1.428342 273.211151,1.321256 
	C274.714355,1.000000 276.428711,1.000000 278.571533,1.000000 
z"/>
<path fill="#A1A1A1" opacity="1.000000" stroke="none" 
	d="
M238.599976,0.999999 
	C237.734451,1.231825 236.468887,1.463653 235.101669,1.347740 
	C236.066650,1.000000 237.133316,1.000000 238.599976,0.999999 
z"/>
<path fill="#808080" opacity="1.000000" stroke="none" 
	d="
M237.399994,513.000000 
	C238.218994,512.793091 239.437973,512.586182 240.828476,512.689575 
	C239.933334,513.000000 238.866653,513.000000 237.399994,513.000000 
z"/>
<path fill="#C8C8C8" opacity="1.000000" stroke="none" 
	d="
M1.000000,277.375000 
	C1.225548,277.949677 1.451095,278.899323 1.338321,279.924500 
	C1.000000,279.250000 1.000000,278.500000 1.000000,277.375000 
z"/>
<path fill="#3961D9" opacity="1.000000" stroke="none" 
	d="
M256.976776,5.205447 
	C281.487946,4.602942 305.570618,7.832164 328.790527,15.447679 
	C422.222015,46.090714 482.038605,109.167976 503.100494,205.138031 
	C521.397095,288.507965 499.864258,363.351044 442.707489,426.978516 
	C403.985840,470.083832 355.229858,495.997498 298.133453,505.669006 
	C284.905304,507.909668 271.309662,507.980988 257.404724,508.480713 
	C256.950775,507.411987 256.996613,506.913055 256.996582,506.414154 
	C256.992035,339.344574 256.984375,172.275009 256.976776,5.205447 
M381.968689,128.601913 
	C381.968597,182.597519 382.000183,236.593155 381.923798,290.588654 
	C381.915344,296.571289 381.576874,302.585754 380.898743,308.529205 
	C378.783325,327.068634 369.329285,337.354187 351.357208,339.720673 
	C337.982300,341.481842 324.714447,340.183563 312.186066,334.634949 
	C304.920776,331.417236 297.788147,327.900085 290.380524,324.416473 
	C285.005157,336.869263 279.631317,349.227386 274.335236,361.618744 
	C270.602142,370.353088 270.618164,370.431885 279.032867,374.897705 
	C312.982056,392.915161 348.761261,395.092102 385.286438,385.632416 
	C408.355713,379.657684 425.017822,365.207886 433.770782,342.516205 
	C438.624390,329.933411 440.787598,316.746399 440.848663,303.396729 
	C441.118408,244.402969 441.040283,185.407639 441.064606,126.412865 
	C441.065063,125.308472 440.776215,124.203957 440.609833,123.009766 
	C421.069763,123.009766 401.813202,123.009766 382.693512,123.009766 
	C382.396057,123.567047 382.135040,123.842232 382.112640,124.135628 
	C382.024078,125.296135 382.010254,126.462349 381.968689,128.601913 
z"/>
<path fill="#FDFDFD" opacity="1.000000" stroke="none" 
	d="
M256.525452,5.069807 
	C256.984375,172.275009 256.992035,339.344574 256.996582,506.414154 
	C256.996613,506.913055 256.950775,507.411987 256.948730,508.364990 
	C241.085052,507.479187 224.948364,507.476746 209.358871,504.554840 
	C157.461151,494.827759 112.878075,470.702820 76.208748,432.668091 
	C30.416075,385.170410 6.376026,328.173096 4.937399,262.208862 
	C2.306371,141.570251 85.144943,36.403107 203.081467,10.860188 
	C220.362885,7.117348 238.391327,6.823734 256.525452,5.069807 
M217.514420,124.946892 
	C192.649384,117.327126 167.279022,114.587814 141.472260,118.047325 
	C91.951866,124.685776 56.104290,149.967636 38.376308,197.400452 
	C23.782694,236.446976 25.026739,276.326538 38.424889,315.442017 
	C50.995316,352.140991 77.023628,375.310394 114.520149,385.344513 
	C137.522629,391.500000 160.939606,391.781067 184.473495,389.566956 
	C204.534058,387.679626 223.728592,382.628296 242.092712,374.232391 
	C246.609222,372.167480 247.936737,370.123138 245.919022,365.287048 
	C243.043259,358.394501 240.992966,351.159454 238.538773,344.088531 
	C236.218460,337.403351 233.831909,330.741180 231.419495,323.913177 
	C230.352142,324.314392 229.720978,324.494812 229.139999,324.778198 
	C204.956833,336.574615 179.265533,340.292664 152.785004,337.729889 
	C127.512894,335.284088 108.150406,322.950043 98.356544,298.977783 
	C87.614174,272.683868 86.679222,245.208038 94.829056,218.169418 
	C103.412994,189.690598 123.089760,172.830170 153.161423,169.535339 
	C166.829407,168.037796 180.563492,168.900406 193.840591,172.487473 
	C204.999527,175.502289 215.849686,179.660065 227.277328,183.458344 
	C232.444672,168.951599 237.855270,153.965332 242.987915,138.884476 
	C243.321960,137.902954 241.849380,135.497910 240.660477,134.938797 
	C233.297562,131.476105 225.775238,128.352356 217.514420,124.946892 
z"/>
<path fill="#747A8C" opacity="1.000000" stroke="none" 
	d="
M507.329773,196.725677 
	C508.599457,203.132736 509.671478,209.168869 510.743500,215.205002 
	C510.295013,215.286682 509.846527,215.368362 509.398071,215.450043 
	C507.571533,207.047760 505.744995,198.645477 503.918457,190.243195 
	C504.382355,190.115692 504.846283,189.988174 505.310211,189.860672 
	C505.917511,192.025375 506.524841,194.190063 507.329773,196.725677 
z"/>
<path fill="#FEFEFF" opacity="1.000000" stroke="none" 
	d="
M381.968689,128.114182 
	C382.010254,126.462349 382.024078,125.296135 382.112640,124.135628 
	C382.135040,123.842232 382.396057,123.567047 382.693512,123.009766 
	C401.813202,123.009766 421.069763,123.009766 440.609833,123.009766 
	C440.776215,124.203957 441.065063,125.308472 441.064606,126.412865 
	C441.040283,185.407639 441.118408,244.402969 440.848663,303.396729 
	C440.787598,316.746399 438.624390,329.933411 433.770782,342.516205 
	C425.017822,365.207886 408.355713,379.657684 385.286438,385.632416 
	C348.761261,395.092102 312.982056,392.915161 279.032867,374.897705 
	C270.618164,370.431885 270.602142,370.353088 274.335236,361.618744 
	C279.631317,349.227386 285.005157,336.869263 290.380524,324.416473 
	C297.788147,327.900085 304.920776,331.417236 312.186066,334.634949 
	C324.714447,340.183563 337.982300,341.481842 351.357208,339.720673 
	C369.329285,337.354187 378.783325,327.068634 380.898743,308.529205 
	C381.576874,302.585754 381.915344,296.571289 381.923798,290.588654 
	C382.000183,236.593155 381.968597,182.597519 381.968689,128.114182 
z"/>
<path fill="#020202" opacity="1.000000" stroke="none" 
	d="
M217.910126,125.031487 
	C225.775238,128.352356 233.297562,131.476105 240.660477,134.938797 
	C241.849380,135.497910 243.321960,137.902954 242.987915,138.884476 
	C237.855270,153.965332 232.444672,168.951599 227.277328,183.458344 
	C215.849686,179.660065 204.999527,175.502289 193.840591,172.487473 
	C180.563492,168.900406 166.829407,168.037796 153.161423,169.535339 
	C123.089760,172.830170 103.412994,189.690598 94.829056,218.169418 
	C86.679222,245.208038 87.614174,272.683868 98.356544,298.977783 
	C108.150406,322.950043 127.512894,335.284088 152.785004,337.729889 
	C179.265533,340.292664 204.956833,336.574615 229.139999,324.778198 
	C229.720978,324.494812 230.352142,324.314392 231.419495,323.913177 
	C233.831909,330.741180 236.218460,337.403351 238.538773,344.088531 
	C240.992966,351.159454 243.043259,358.394501 245.919022,365.287048 
	C247.936737,370.123138 246.609222,372.167480 242.092712,374.232391 
	C223.728592,382.628296 204.534058,387.679626 184.473495,389.566956 
	C160.939606,391.781067 137.522629,391.500000 114.520149,385.344513 
	C77.023628,375.310394 50.995316,352.140991 38.424889,315.442017 
	C25.026739,276.326538 23.782694,236.446976 38.376308,197.400452 
	C56.104290,149.967636 91.951866,124.685776 141.472260,118.047325 
	C167.279022,114.587814 192.649384,117.327126 217.910126,125.031487 
z"/>
</svg>