<svg version="1.1" id="Layer_1" xmlns="http://www.w3.org/2000/svg" xmlns:xlink="http://www.w3.org/1999/xlink" x="0px" y="0px"
	 width="100%" viewBox="0 0 4424 1405" enable-background="new 0 0 4424 1405" xml:space="preserve">
<path fill="#FEFEFE" opacity="1.000000" stroke="none" 
	d="
M2856.000000,1408.000000 
	C1904.000000,1408.000000 953.000000,1408.000000 2.000000,1408.000000 
	C2.000000,939.333313 2.000000,470.666656 2.000000,2.000000 
	C1476.666626,2.000000 2951.333252,2.000000 4426.000000,2.000000 
	C4426.000000,470.666656 4426.000000,939.333313 4426.000000,1408.000000 
	C3903.000000,1408.000000 3380.000000,1408.000000 2856.000000,1408.000000 
M4382.523926,837.000061 
	C4382.523926,578.864014 4382.523926,320.727936 4382.523926,62.582962 
	C3736.006592,62.582962 3090.967041,62.582962 2446.006592,62.582962 
	C2444.062988,81.176308 2444.914551,1348.275635 2446.796875,1355.554199 
	C3091.831055,1355.554199 3736.864990,1355.554199 4382.524902,1355.554199 
	C4382.524902,1182.875610 4382.524902,1010.937866 4382.523926,837.000061 
M1503.278687,1081.786499 
	C1510.616699,1108.633423 1517.954590,1135.480347 1525.203003,1161.999756 
	C1566.878540,1161.999756 1607.416870,1161.999756 1647.894043,1161.999756 
	C1649.949951,1143.851196 1649.140503,224.492203 1647.091431,217.345978 
	C1605.578979,217.345978 1564.040283,217.345978 1521.747314,217.345978 
	C1521.747314,396.062622 1521.747314,574.272461 1521.747314,753.015198 
	C1518.841064,753.144653 1516.666260,753.241455 1514.053345,753.357788 
	C1465.031128,574.458252 1416.100586,395.893524 1367.159546,217.290405 
	C1325.743286,217.290405 1285.197266,217.290405 1244.301270,217.290405 
	C1244.301270,532.493225 1244.301270,847.242371 1244.301270,1161.836548 
	C1286.693237,1161.836548 1328.493774,1161.836548 1371.033081,1161.836548 
	C1371.033081,983.005920 1371.033081,804.839294 1371.033081,626.590088 
	C1373.997925,626.590088 1376.190308,626.590088 1378.325928,626.590088 
	C1378.906250,627.921265 1379.417236,628.787598 1379.672852,629.723755 
	C1400.345825,705.456055 1420.984131,781.197876 1441.657593,856.930054 
	C1461.980957,931.379822 1482.338623,1005.820251 1503.278687,1081.786499 
M366.884583,1007.608582 
	C357.850952,1031.484131 339.366516,1039.796997 315.313263,1037.689331 
	C300.747620,1036.412842 291.301514,1027.047974 284.378937,1014.965942 
	C275.007599,998.610107 272.095154,980.707520 272.099274,962.106812 
	C272.131989,814.453430 272.116882,666.800110 272.117035,519.146729 
	C272.117065,484.483185 271.832642,449.816315 272.237885,415.157501 
	C272.449371,397.069885 275.082703,379.275330 284.713745,363.338226 
	C301.780334,335.097046 341.449829,333.703674 359.888641,361.025208 
	C364.276337,367.526581 367.997223,375.044373 369.750427,382.620911 
	C372.204742,393.227417 373.466827,404.316498 373.591431,415.217987 
	C374.029449,453.542847 373.762970,491.875763 373.763855,530.205627 
	C373.763916,533.758057 373.763855,537.310486 373.763855,540.845520 
	C417.747894,540.845520 460.523376,540.845520 503.275574,540.845520 
	C503.511536,539.156311 503.766663,538.180481 503.767120,537.204468 
	C503.786530,495.208344 504.465393,453.197845 503.582947,411.220276 
	C502.769073,372.506439 494.256592,335.337738 476.106598,300.749939 
	C454.290283,259.175354 422.675049,228.911942 376.976562,214.951691 
	C350.766785,206.944977 323.893677,205.642181 296.830444,207.965363 
	C242.306503,212.645874 199.129150,236.652527 169.985764,283.849884 
	C145.018829,324.283508 133.146790,368.565979 133.091141,415.838898 
	C132.876129,598.488892 132.890549,781.139282 133.090912,963.789246 
	C133.135345,1004.297546 141.554779,1043.071411 160.088989,1079.419312 
	C181.847626,1122.090820 214.119843,1152.804443 260.892700,1165.734131 
	C297.819733,1175.942017 335.398102,1176.108032 372.535187,1166.396240 
	C416.856079,1154.805786 448.923340,1126.813965 471.732300,1088.011841 
	C493.848114,1050.388550 503.037842,1008.968018 503.675262,965.692993 
	C504.259369,926.038513 503.813599,886.368652 503.773773,846.705566 
	C503.771210,844.173157 503.355591,841.641113 503.115631,838.922058 
	C459.902405,838.922058 417.372589,838.922058 373.763855,838.922058 
	C373.763855,842.887512 373.764343,846.448608 373.763794,850.009644 
	C373.757629,890.006042 373.746918,930.002380 373.747589,969.998779 
	C373.747803,982.423035 372.192291,994.575928 366.884583,1007.608582 
M2155.000488,216.835403 
	C2090.068115,216.835403 2025.135986,216.835403 1959.672852,216.835403 
	C1959.672852,532.428711 1959.672852,847.132263 1959.672852,1161.762939 
	C2065.738525,1161.762939 2171.172119,1161.762939 2276.253418,1161.762939 
	C2276.253418,1114.196411 2276.253418,1067.371826 2276.253418,1019.538696 
	C2216.504150,1019.538696 2157.380859,1019.538696 2098.348877,1019.538696 
	C2098.348877,932.640259 2098.348877,846.760071 2098.348877,759.797363 
	C2141.212402,759.797363 2183.659912,759.797363 2226.135010,759.797363 
	C2226.135010,708.816528 2226.135010,658.920776 2226.135010,607.969727 
	C2183.327393,607.969727 2140.878174,607.969727 2098.470215,607.969727 
	C2098.470215,524.764465 2098.470215,442.617279 2098.470215,359.425476 
	C2158.121582,359.425476 2217.228271,359.425476 2276.338867,359.425476 
	C2276.338867,311.499298 2276.338867,264.622437 2276.338867,216.835464 
	C2236.199219,216.835464 2196.599854,216.835464 2155.000488,216.835403 
M794.326294,558.999878 
	C794.326294,759.833557 794.326294,960.667236 794.326294,1162.005859 
	C841.006226,1162.005859 886.795044,1162.005859 932.877563,1162.005859 
	C932.877563,846.910095 932.877563,532.285034 932.877563,217.519073 
	C886.417419,217.519073 840.619019,217.519073 794.326294,217.519073 
	C794.326294,331.142120 794.326294,444.070923 794.326294,558.999878 
z"/>
<path fill="#3961D9" opacity="1.000000" stroke="none" 
	d="
M4382.524414,838.000122 
	C4382.524902,1010.937866 4382.524902,1182.875610 4382.524902,1355.554199 
	C3736.864990,1355.554199 3091.831055,1355.554199 2446.796875,1355.549316 
	C2444.914551,1348.275635 2444.062988,81.176308 2446.006592,62.582962 
	C3090.967041,62.582962 3736.006592,62.582962 4382.523926,62.582962 
	C4382.523926,320.727936 4382.523926,578.864014 4382.524414,838.000122 
M4147.768555,731.323608 
	C4133.665527,703.608337 4114.735352,680.085083 4087.871094,664.005920 
	C4100.907227,650.047424 4113.651367,637.320251 4125.345215,623.692627 
	C4150.957031,593.845154 4166.254395,559.457520 4170.562500,520.038025 
	C4174.056152,488.068878 4173.661621,456.156433 4171.319824,424.241058 
	C4169.734863,402.646881 4166.054199,381.307465 4160.056152,360.411102 
	C4141.228516,294.818726 4100.125488,251.129257 4034.192627,231.460129 
	C4005.583008,222.925354 3976.351074,218.359421 3946.613281,217.934113 
	C3899.626953,217.262115 3852.628174,217.423370 3805.634766,217.264709 
	C3803.375977,217.257095 3801.116455,217.564819 3798.288086,217.766220 
	C3798.288086,532.645325 3798.288086,847.072205 3798.288086,1162.083862 
	C3801.640869,1162.264893 3804.551025,1162.557495 3807.460938,1162.558960 
	C3859.789307,1162.585449 3912.117432,1162.609741 3964.445801,1162.560059 
	C3986.890381,1162.538696 4008.943115,1159.307617 4030.547852,1153.378662 
	C4077.349365,1140.535156 4115.248535,1115.200195 4141.180664,1073.437012 
	C4163.581543,1037.360596 4174.744629,997.528809 4179.934570,955.793579 
	C4183.850586,924.301941 4184.136719,892.749695 4182.503906,861.025940 
	C4180.170898,815.704407 4168.923340,773.024048 4147.768555,731.323608 
M3125.810059,944.999756 
	C3125.817139,952.665100 3125.690918,960.333313 3125.853271,967.995361 
	C3126.741943,1009.981567 3136.008789,1049.891113 3156.609131,1086.696533 
	C3180.986084,1130.249878 3216.599365,1159.195068 3266.413086,1168.899414 
	C3287.103271,1172.930176 3307.916260,1173.703125 3329.023682,1172.442139 
	C3385.878906,1169.045166 3429.040771,1142.509399 3459.842773,1095.567627 
	C3482.858643,1060.491577 3492.911133,1020.978577 3495.843018,979.479431 
	C3496.265137,973.503052 3496.248779,967.487854 3496.249268,961.490662 
	C3496.268799,780.513855 3496.283447,599.537048 3496.251953,418.560242 
	C3496.244385,374.808350 3487.000732,333.264526 3465.523926,294.874359 
	C3444.937744,258.075928 3415.842773,230.952591 3375.439209,216.933838 
	C3350.464355,208.268341 3324.685059,206.498474 3298.547607,207.604111 
	C3234.762207,210.302261 3186.686279,238.586121 3156.113525,295.241241 
	C3135.435059,333.560852 3125.784668,374.603088 3125.794434,418.067139 
	C3125.834473,593.044739 3125.810303,768.022278 3125.810059,944.999756 
M2617.741699,1132.999268 
	C2617.840576,1145.847046 2617.531006,1158.711060 2617.937988,1171.791992 
	C2652.012207,1173.640259 2684.523682,1172.561646 2716.247803,1163.312378 
	C2766.481201,1148.666748 2800.434814,1116.531860 2818.422119,1067.370850 
	C2828.298828,1040.376099 2831.402344,1012.338623 2831.412598,983.896362 
	C2831.503174,731.903870 2831.467041,479.911377 2831.468506,227.918869 
	C2831.468506,224.680099 2831.468506,221.441345 2831.468506,217.544754 
	C2784.580322,217.544754 2738.784180,217.544754 2692.035156,217.544754 
	C2692.035156,222.425919 2692.035156,226.685425 2692.035156,230.944916 
	C2692.035156,472.271088 2692.036621,713.597229 2692.028076,954.923401 
	C2692.028076,961.589233 2691.998535,968.256714 2691.855713,974.920715 
	C2690.955811,1016.855896 2659.371826,1039.567017 2625.964600,1036.116577 
	C2623.477051,1035.859619 2620.917725,1036.300415 2617.741211,1036.446899 
	C2617.741211,1068.432007 2617.741211,1099.715820 2617.741699,1132.999268 
z"/>
<path fill="#010101" opacity="1.000000" stroke="none" 
	d="
M1502.979980,1081.025635 
	C1482.338623,1005.820251 1461.980957,931.379822 1441.657593,856.930054 
	C1420.984131,781.197876 1400.345825,705.456055 1379.672852,629.723755 
	C1379.417236,628.787598 1378.906250,627.921265 1378.325928,626.590088 
	C1376.190308,626.590088 1373.997925,626.590088 1371.033081,626.590088 
	C1371.033081,804.839294 1371.033081,983.005920 1371.033081,1161.836548 
	C1328.493774,1161.836548 1286.693237,1161.836548 1244.301270,1161.836548 
	C1244.301270,847.242371 1244.301270,532.493225 1244.301270,217.290405 
	C1285.197266,217.290405 1325.743286,217.290405 1367.159546,217.290405 
	C1416.100586,395.893524 1465.031128,574.458252 1514.053345,753.357788 
	C1516.666260,753.241455 1518.841064,753.144653 1521.747314,753.015198 
	C1521.747314,574.272461 1521.747314,396.062622 1521.747314,217.345978 
	C1564.040283,217.345978 1605.578979,217.345978 1647.091431,217.345978 
	C1649.140503,224.492203 1649.949951,1143.851196 1647.894043,1161.999756 
	C1607.416870,1161.999756 1566.878540,1161.999756 1525.203003,1161.999756 
	C1517.954590,1135.480347 1510.616699,1108.633423 1502.979980,1081.025635 
z"/>
<path fill="#010101" opacity="1.000000" stroke="none" 
	d="
M367.218903,1006.906250 
	C372.192291,994.575928 373.747803,982.423035 373.747589,969.998779 
	C373.746918,930.002380 373.757629,890.006042 373.763794,850.009644 
	C373.764343,846.448608 373.763855,842.887512 373.763855,838.922058 
	C417.372589,838.922058 459.902405,838.922058 503.115631,838.922058 
	C503.355591,841.641113 503.771210,844.173157 503.773773,846.705566 
	C503.813599,886.368652 504.259369,926.038513 503.675262,965.692993 
	C503.037842,1008.968018 493.848114,1050.388550 471.732300,1088.011841 
	C448.923340,1126.813965 416.856079,1154.805786 372.535187,1166.396240 
	C335.398102,1176.108032 297.819733,1175.942017 260.892700,1165.734131 
	C214.119843,1152.804443 181.847626,1122.090820 160.088989,1079.419312 
	C141.554779,1043.071411 133.135345,1004.297546 133.090912,963.789246 
	C132.890549,781.139282 132.876129,598.488892 133.091141,415.838898 
	C133.146790,368.565979 145.018829,324.283508 169.985764,283.849884 
	C199.129150,236.652527 242.306503,212.645874 296.830444,207.965363 
	C323.893677,205.642181 350.766785,206.944977 376.976562,214.951691 
	C422.675049,228.911942 454.290283,259.175354 476.106598,300.749939 
	C494.256592,335.337738 502.769073,372.506439 503.582947,411.220276 
	C504.465393,453.197845 503.786530,495.208344 503.767120,537.204468 
	C503.766663,538.180481 503.511536,539.156311 503.275574,540.845520 
	C460.523376,540.845520 417.747894,540.845520 373.763855,540.845520 
	C373.763855,537.310486 373.763916,533.758057 373.763855,530.205627 
	C373.762970,491.875763 374.029449,453.542847 373.591431,415.217987 
	C373.466827,404.316498 372.204742,393.227417 369.750427,382.620911 
	C367.997223,375.044373 364.276337,367.526581 359.888641,361.025208 
	C341.449829,333.703674 301.780334,335.097046 284.713745,363.338226 
	C275.082703,379.275330 272.449371,397.069885 272.237885,415.157501 
	C271.832642,449.816315 272.117065,484.483185 272.117035,519.146729 
	C272.116882,666.800110 272.131989,814.453430 272.099274,962.106812 
	C272.095154,980.707520 275.007599,998.610107 284.378937,1014.965942 
	C291.301514,1027.047974 300.747620,1036.412842 315.313263,1037.689331 
	C339.366516,1039.796997 357.850952,1031.484131 367.218903,1006.906250 
z"/>
<path fill="#010101" opacity="1.000000" stroke="none" 
	d="
M2156.000488,216.835434 
	C2196.599854,216.835464 2236.199219,216.835464 2276.338867,216.835464 
	C2276.338867,264.622437 2276.338867,311.499298 2276.338867,359.425476 
	C2217.228271,359.425476 2158.121582,359.425476 2098.470215,359.425476 
	C2098.470215,442.617279 2098.470215,524.764465 2098.470215,607.969727 
	C2140.878174,607.969727 2183.327393,607.969727 2226.135010,607.969727 
	C2226.135010,658.920776 2226.135010,708.816528 2226.135010,759.797363 
	C2183.659912,759.797363 2141.212402,759.797363 2098.348877,759.797363 
	C2098.348877,846.760071 2098.348877,932.640259 2098.348877,1019.538696 
	C2157.380859,1019.538696 2216.504150,1019.538696 2276.253418,1019.538696 
	C2276.253418,1067.371826 2276.253418,1114.196411 2276.253418,1161.762939 
	C2171.172119,1161.762939 2065.738525,1161.762939 1959.672852,1161.762939 
	C1959.672852,847.132263 1959.672852,532.428711 1959.672852,216.835403 
	C2025.135986,216.835403 2090.068115,216.835403 2156.000488,216.835434 
z"/>
<path fill="#020202" opacity="1.000000" stroke="none" 
	d="
M794.326294,557.999817 
	C794.326294,444.070923 794.326294,331.142120 794.326294,217.519073 
	C840.619019,217.519073 886.417419,217.519073 932.877563,217.519073 
	C932.877563,532.285034 932.877563,846.910095 932.877563,1162.005859 
	C886.795044,1162.005859 841.006226,1162.005859 794.326294,1162.005859 
	C794.326294,960.667236 794.326294,759.833557 794.326294,557.999817 
z"/>
<path fill="#FFFFFF" opacity="1.000000" stroke="none" 
	d="
M4148.073242,732.001831 
	C4168.923340,773.024048 4180.170898,815.704407 4182.503906,861.025940 
	C4184.136719,892.749695 4183.850586,924.301941 4179.934570,955.793579 
	C4174.744629,997.528809 4163.581543,1037.360596 4141.180664,1073.437012 
	C4115.248535,1115.200195 4077.349365,1140.535156 4030.547852,1153.378662 
	C4008.943115,1159.307617 3986.890381,1162.538696 3964.445801,1162.560059 
	C3912.117432,1162.609741 3859.789307,1162.585449 3807.460938,1162.558960 
	C3804.551025,1162.557495 3801.640869,1162.264893 3798.288086,1162.083862 
	C3798.288086,847.072205 3798.288086,532.645325 3798.288086,217.766220 
	C3801.116455,217.564819 3803.375977,217.257095 3805.634766,217.264709 
	C3852.628174,217.423370 3899.626953,217.262115 3946.613281,217.934113 
	C3976.351074,218.359421 4005.583008,222.925354 4034.192627,231.460129 
	C4100.125488,251.129257 4141.228516,294.818726 4160.056152,360.411102 
	C4166.054199,381.307465 4169.734863,402.646881 4171.319824,424.241058 
	C4173.661621,456.156433 4174.056152,488.068878 4170.562500,520.038025 
	C4166.254395,559.457520 4150.957031,593.845154 4125.345215,623.692627 
	C4113.651367,637.320251 4100.907227,650.047424 4087.871094,664.005920 
	C4114.735352,680.085083 4133.665527,703.608337 4148.073242,732.001831 
M3947.097412,734.156189 
	C3943.600830,734.307617 3940.104248,734.459045 3936.791504,734.602539 
	C3936.791504,832.068115 3936.791504,928.259644 3936.791504,1025.817871 
	C3944.949463,1025.334351 3952.487549,1025.023438 3960.001953,1024.418213 
	C3990.116211,1021.992920 4010.698486,1006.245239 4023.024658,979.066528 
	C4029.964111,963.764465 4033.757324,947.598694 4036.072754,931.045837 
	C4040.856934,896.841797 4040.454590,862.613037 4035.944580,828.440247 
	C4033.450684,809.544250 4028.926270,791.163513 4019.892090,774.132629 
	C4009.434814,754.419556 3993.458008,741.766052 3971.710693,736.909241 
	C3964.288330,735.251526 3956.544434,735.033386 3947.097412,734.156189 
M4024.108154,562.920715 
	C4027.469971,553.193542 4031.668701,543.665039 4034.034912,533.701416 
	C4040.807373,505.182159 4040.973633,476.163513 4037.313232,447.284149 
	C4035.611328,433.857330 4032.364502,420.356903 4027.781982,407.622498 
	C4019.054199,383.368317 4002.236816,366.545166 3976.992188,359.268524 
	C3963.915771,355.499359 3950.576416,353.541962 3937.053223,355.051544 
	C3935.159180,371.552826 3935.874268,599.250549 3937.724609,606.336914 
	C3975.772705,610.017700 4007.091553,595.087341 4024.108154,562.920715 
z"/>
<path fill="#FFFFFF" opacity="1.000000" stroke="none" 
	d="
M3125.810059,943.999817 
	C3125.810303,768.022278 3125.834473,593.044739 3125.794434,418.067139 
	C3125.784668,374.603088 3135.435059,333.560852 3156.113525,295.241241 
	C3186.686279,238.586121 3234.762207,210.302261 3298.547607,207.604111 
	C3324.685059,206.498474 3350.464355,208.268341 3375.439209,216.933838 
	C3415.842773,230.952591 3444.937744,258.075928 3465.523926,294.874359 
	C3487.000732,333.264526 3496.244385,374.808350 3496.251953,418.560242 
	C3496.283447,599.537048 3496.268799,780.513855 3496.249268,961.490662 
	C3496.248779,967.487854 3496.265137,973.503052 3495.843018,979.479431 
	C3492.911133,1020.978577 3482.858643,1060.491577 3459.842773,1095.567627 
	C3429.040771,1142.509399 3385.878906,1169.045166 3329.023682,1172.442139 
	C3307.916260,1173.703125 3287.103271,1172.930176 3266.413086,1168.899414 
	C3216.599365,1159.195068 3180.986084,1130.249878 3156.609131,1086.696533 
	C3136.008789,1049.891113 3126.741943,1009.981567 3125.853271,967.995361 
	C3125.690918,960.333313 3125.817139,952.665100 3125.810059,943.999817 
M3357.465576,591.000061 
	C3357.465576,559.338745 3357.466797,527.677429 3357.465332,496.016144 
	C3357.463867,468.354126 3357.625488,440.690765 3357.395996,413.030609 
	C3357.248535,395.261627 3355.457031,377.748352 3346.080322,361.951233 
	C3336.317627,345.504333 3319.396484,338.485565 3300.789307,343.221069 
	C3285.824707,347.029541 3277.230957,357.439331 3271.733887,371.100983 
	C3266.165771,384.938568 3264.629883,399.430389 3264.630615,414.191437 
	C3264.640137,597.160645 3264.636475,780.129822 3264.638184,963.098999 
	C3264.638184,966.098450 3264.541992,969.104248 3264.697510,972.096313 
	C3265.480713,987.153137 3267.251709,1001.995422 3274.907471,1015.431152 
	C3279.968750,1024.312622 3286.378174,1031.815674 3296.235840,1035.626099 
	C3318.000977,1044.039429 3340.760986,1033.901489 3349.472656,1011.885193 
	C3355.311035,997.130493 3357.522461,981.781311 3357.511230,965.937256 
	C3357.422852,841.624939 3357.463867,717.312500 3357.465576,591.000061 
z"/>
<path fill="#FEFEFF" opacity="1.000000" stroke="none" 
	d="
M2617.741455,1131.999512 
	C2617.741211,1099.715820 2617.741211,1068.432007 2617.741211,1036.446899 
	C2620.917725,1036.300415 2623.477051,1035.859619 2625.964600,1036.116577 
	C2659.371826,1039.567017 2690.955811,1016.855896 2691.855713,974.920715 
	C2691.998535,968.256714 2692.028076,961.589233 2692.028076,954.923401 
	C2692.036621,713.597229 2692.035156,472.271088 2692.035156,230.944916 
	C2692.035156,226.685425 2692.035156,222.425919 2692.035156,217.544754 
	C2738.784180,217.544754 2784.580322,217.544754 2831.468506,217.544754 
	C2831.468506,221.441345 2831.468506,224.680099 2831.468506,227.918869 
	C2831.467041,479.911377 2831.503174,731.903870 2831.412598,983.896362 
	C2831.402344,1012.338623 2828.298828,1040.376099 2818.422119,1067.370850 
	C2800.434814,1116.531860 2766.481201,1148.666748 2716.247803,1163.312378 
	C2684.523682,1172.561646 2652.012207,1173.640259 2617.937988,1171.791992 
	C2617.531006,1158.711060 2617.840576,1145.847046 2617.741455,1131.999512 
z"/>
<path fill="#3B63D9" opacity="1.000000" stroke="none" 
	d="
M3948.022461,734.156860 
	C3956.544434,735.033386 3964.288330,735.251526 3971.710693,736.909241 
	C3993.458008,741.766052 4009.434814,754.419556 4019.892090,774.132629 
	C4028.926270,791.163513 4033.450684,809.544250 4035.944580,828.440247 
	C4040.454590,862.613037 4040.856934,896.841797 4036.072754,931.045837 
	C4033.757324,947.598694 4029.964111,963.764465 4023.024658,979.066528 
	C4010.698486,1006.245239 3990.116211,1021.992920 3960.001953,1024.418213 
	C3952.487549,1025.023438 3944.949463,1025.334351 3936.791504,1025.817871 
	C3936.791504,928.259644 3936.791504,832.068115 3936.791504,734.602539 
	C3940.104248,734.459045 3943.600830,734.307617 3948.022461,734.156860 
z"/>
<path fill="#3B63D9" opacity="1.000000" stroke="none" 
	d="
M4023.782227,563.586304 
	C4007.091553,595.087341 3975.772705,610.017700 3937.724609,606.336914 
	C3935.874268,599.250549 3935.159180,371.552826 3937.053223,355.051544 
	C3950.576416,353.541962 3963.915771,355.499359 3976.992188,359.268524 
	C4002.236816,366.545166 4019.054199,383.368317 4027.781982,407.622498 
	C4032.364502,420.356903 4035.611328,433.857330 4037.313232,447.284149 
	C4040.973633,476.163513 4040.807373,505.182159 4034.034912,533.701416 
	C4031.668701,543.665039 4027.469971,553.193542 4023.782227,563.586304 
z"/>
<path fill="#3C64DA" opacity="1.000000" stroke="none" 
	d="
M3357.465332,592.000122 
	C3357.463867,717.312500 3357.422852,841.624939 3357.511230,965.937256 
	C3357.522461,981.781311 3355.311035,997.130493 3349.472656,1011.885193 
	C3340.760986,1033.901489 3318.000977,1044.039429 3296.235840,1035.626099 
	C3286.378174,1031.815674 3279.968750,1024.312622 3274.907471,1015.431152 
	C3267.251709,1001.995422 3265.480713,987.153137 3264.697510,972.096313 
	C3264.541992,969.104248 3264.638184,966.098450 3264.638184,963.098999 
	C3264.636475,780.129822 3264.640137,597.160645 3264.630615,414.191437 
	C3264.629883,399.430389 3266.165771,384.938568 3271.733887,371.100983 
	C3277.230957,357.439331 3285.824707,347.029541 3300.789307,343.221069 
	C3319.396484,338.485565 3336.317627,345.504333 3346.080322,361.951233 
	C3355.457031,377.748352 3357.248535,395.261627 3357.395996,413.030609 
	C3357.625488,440.690765 3357.463867,468.354126 3357.465332,496.016144 
	C3357.466797,527.677429 3357.465576,559.338745 3357.465332,592.000122 
z"/>
</svg>